<svg width="24" height="24" viewBox="0 0 24 24" fill="none" xmlns="http://www.w3.org/2000/svg">
<path d="M19.25 11C19.25 11.4142 19.5858 11.75 20 11.75C20.4142 11.75 20.75 11.4142 20.75 11H19.25ZM3.25 11C3.25 11.4142 3.58579 11.75 4 11.75C4.41421 11.75 4.75 11.4142 4.75 11H3.25ZM3.51493 11.6213L3.33302 10.8937L3.33302 10.8937L3.51493 11.6213ZM5.25448 11.1864L5.43639 11.914L5.43643 11.914L5.25448 11.1864ZM5.25448 17.8136L5.43643 17.086L5.43639 17.086L5.25448 17.8136ZM3.51493 17.3787L3.33302 18.1063L3.33302 18.1063L3.51493 17.3787ZM20.4851 11.6213L20.667 10.8937L20.667 10.8937L20.4851 11.6213ZM18.7455 11.1864L18.5636 11.914L18.5636 11.914L18.7455 11.1864ZM18.7455 17.8136L18.5636 17.086L18.5636 17.086L18.7455 17.8136ZM20.4851 17.3787L20.667 18.1063L20.667 18.1063L20.4851 17.3787ZM20.75 11C20.75 6.16751 16.8325 2.25 12 2.25V3.75C16.0041 3.75 19.25 6.99593 19.25 11H20.75ZM12 2.25C7.16751 2.25 3.25 6.16751 3.25 11H4.75C4.75 6.99593 7.99593 3.75 12 3.75V2.25ZM2.75 15.4384V13.5616H1.25V15.4384H2.75ZM2.75 13.5616C2.75 12.988 3.14035 12.488 3.69684 12.3489L3.33302 10.8937C2.10883 11.1998 1.25 12.2996 1.25 13.5616H2.75ZM3.69684 12.3489L5.43639 11.914L5.07257 10.4588L3.33302 10.8937L3.69684 12.3489ZM5.43643 11.914C5.34169 11.9377 5.25 11.866 5.25 11.7685H6.75C6.75 10.8902 5.92465 10.2457 5.07253 10.4588L5.43643 11.914ZM5.25 11.7685V17.2315H6.75V11.7685H5.25ZM5.25 17.2315C5.25 17.134 5.34169 17.0623 5.43643 17.086L5.07253 18.5412C5.92465 18.7543 6.75 18.1098 6.75 17.2315H5.25ZM5.43639 17.086L3.69684 16.6511L3.33302 18.1063L5.07257 18.5412L5.43639 17.086ZM3.69684 16.6511C3.14035 16.512 2.75 16.012 2.75 15.4384H1.25C1.25 16.7004 2.10883 17.8002 3.33302 18.1063L3.69684 16.6511ZM22.75 15.4384V13.5616H21.25V15.4384H22.75ZM22.75 13.5616C22.75 12.2996 21.8912 11.1998 20.667 10.8937L20.3032 12.3489C20.8596 12.488 21.25 12.988 21.25 13.5616H22.75ZM20.667 10.8937L18.9274 10.4588L18.5636 11.914L20.3032 12.3489L20.667 10.8937ZM18.9274 10.4588C18.0753 10.2457 17.25 10.8902 17.25 11.7685H18.75C18.75 11.866 18.6583 11.9377 18.5636 11.914L18.9274 10.4588ZM17.25 11.7685V17.2315H18.75V11.7685H17.25ZM17.25 17.2315C17.25 18.1098 18.0753 18.7543 18.9274 18.5412L18.5636 17.086C18.6583 17.0623 18.75 17.134 18.75 17.2315H17.25ZM18.9274 18.5412L20.667 18.1063L20.3032 16.6511L18.5636 17.086L18.9274 18.5412ZM20.667 18.1063C21.8912 17.8002 22.75 16.7004 22.75 15.4384H21.25C21.25 16.012 20.8596 16.512 20.3032 16.6511L20.667 18.1063ZM19.25 18V18.5H20.75V18H19.25ZM19.25 18.5C19.25 19.1904 18.6904 19.75 18 19.75V21.25C19.5188 21.25 20.75 20.0188 20.75 18.5H19.25ZM18 19.75H14.5V21.25H18V19.75ZM13.5 21.25H10.5V22.75H13.5V21.25ZM10.5 21.25C10.0858 21.25 9.75 20.9142 9.75 20.5H8.25C8.25 21.7426 9.25735 22.75 10.5 22.75V21.25ZM9.75 20.5C9.75 20.0858 10.0858 19.75 10.5 19.75V18.25C9.25735 18.25 8.25 19.2574 8.25 20.5H9.75ZM10.5 19.75H13.5V18.25H10.5V19.75ZM13.5 19.75C13.9142 19.75 14.25 20.0858 14.25 20.5H15.75C15.75 19.2574 14.7426 18.25 13.5 18.25V19.75ZM14.25 20.5C14.25 20.9142 13.9142 21.25 13.5 21.25V22.75C14.7426 22.75 15.75 21.7426 15.75 20.5H14.25Z" fill="black"/>
</svg>
